<?xml version="1.0" encoding="UTF-8"?>
<svg id="Capa_2" data-name="Capa 2" xmlns="http://www.w3.org/2000/svg" viewBox="0 0 266.05 45.44">
  <defs>
    <style>
      .cls-1 {
        fill: #002a3a;
      }
    </style>
  </defs>
  <g id="Capa_1-2" data-name="Capa 1">
    <g>
      <g>
        <path class="cls-1" d="M0,1.62h19.45c8.04,0,13.63,4.92,13.63,11.16,0,5.46-4.14,8.4-8.64,9.9,5.4,1.32,10.68,4.38,10.68,10.86,0,7.5-7.02,11.28-15.07,11.28H0v-.24c.18-.78,1.56-5.1,1.56-9.12V10.98C1.56,6.96.18,2.64,0,1.86v-.24ZM23.65,12.78c0-4.08-2.34-8.58-7.26-8.58h-5.82v17.47h5.64c4.92,0,7.44-4.5,7.44-8.88ZM25.75,33.49c0-5.34-3-9.3-8.76-9.3h-6.42v18.07h6.42c6,0,8.76-3.24,8.76-8.76Z"/>
        <path class="cls-1" d="M36.9,29.77c0-9.66,6.3-15.49,15.13-15.49,9.72,0,13.69,7.2,13.69,14.77h-19.51c.6,6.3,3.42,10.8,9.54,10.8,3.12,0,5.94-1.02,9.36-3.6l.24.12c-1.62,4.26-6.24,9.06-13.45,9.06s-15.01-5.16-15.01-15.67ZM46.14,27.61l11.1-1.74c-.12-4.68-1.32-9.24-5.34-9.24-4.38,0-5.82,5.22-5.76,10.26v.72Z"/>
        <path class="cls-1" d="M79.51,44.84h-11.58v-.24c.18-.78,1.56-5.1,1.56-9.12v-11.46c0-4.02-1.38-8.34-1.56-9.18v-.18h10.02v5.16c2.04-3.12,5.22-5.52,9.66-5.52,5.28,0,9.9,3.18,9.9,10.08v11.1c0,4.02,1.38,8.34,1.5,9.12v.24h-11.52v-.24c.18-.78,1.56-5.1,1.56-9.12v-9.96c0-4.26-2.58-5.88-5.4-5.94-1.98-.06-3.9.78-5.7,2.16v13.75c0,4.02,1.38,8.34,1.56,9.12v.24Z"/>
        <path class="cls-1" d="M101.08,35.95c0-6.48,6.48-10.32,13.87-9.6,1.5.12,3.24.42,4.62.9v-3.6c0-4.32-1.14-6.78-3.3-6.78-3.6,0-11.88,6.66-12.66,7.74h-.3v-8.1c5.16-1.5,10.2-2.22,13.45-2.22,7.86,0,11.28,4.08,11.28,9.9v12.67c0,3.36,1.08,4.8,3.84,3.6l.12.18c-.54,2.64-2.64,4.62-6,4.62-3.18,0-5.34-1.68-6.12-4.68-1.56,2.34-4.56,4.8-9.12,4.8-6.36,0-9.66-4.8-9.66-9.42ZM115.36,40.76c1.56,0,3-.72,4.2-1.98v-9.72c-.36,0-.78,0-1.2-.06-5.64-.72-8.46,2.16-8.46,5.76s2.22,6,5.46,6Z"/>
        <path class="cls-1" d="M129.05,14.83v-.18h14.05v.18c-.24.78-1.62,4.5-.12,7.92l6,14.11,5.64-14.05c1.38-3.42-.06-7.2-.36-7.98v-.18h7.38v.18c-.3.6-2.7,4.26-4.08,7.68l-9.12,22.33h-5.22l-9.3-21.55c-1.62-3.66-4.2-7.62-4.86-8.46Z"/>
        <path class="cls-1" d="M175.08,44.84h-11.52v-.24c.18-.78,1.56-5.1,1.56-9.12v-11.46c0-4.02-1.38-8.34-1.56-9.18v-.18h9.96v20.83c0,4.02,1.38,8.34,1.56,9.12v.24Z"/>
        <path class="cls-1" d="M198.59,40.4c-2.52,3.72-6.06,4.98-9.18,4.98-6.12,0-12.06-5.1-12.06-15.61s5.88-15.49,12.18-15.49c3.42,0,6.72,1.5,8.7,4.5v-8.34c0-4.02-2.04-8.16-2.34-8.94l-.06-.18,2.16-.3,8.7-1.02v35.47c0,4.02,1.38,8.34,1.56,9.12v.24h-7.8c-.6-1.5-1.38-2.64-1.86-4.44ZM193.13,41.06c1.8,0,3.48-.84,5.16-2.34-.06-.48-.06-1.08-.06-1.68v-15.85c-1.44-1.26-3.12-2.1-4.98-2.1-4.62,0-6.72,4.62-6.72,10.5s1.62,11.46,6.6,11.46Z"/>
        <path class="cls-1" d="M210.35,29.77c0-9.66,6.3-15.49,15.13-15.49,9.72,0,13.69,7.2,13.69,14.77h-19.51c.6,6.3,3.42,10.8,9.54,10.8,3.12,0,5.94-1.02,9.36-3.6l.24.12c-1.62,4.26-6.24,9.06-13.45,9.06s-15.01-5.16-15.01-15.67ZM219.59,27.61l11.1-1.74c-.12-4.68-1.32-9.24-5.34-9.24-4.38,0-5.82,5.22-5.76,10.26v.72Z"/>
        <path class="cls-1" d="M242.28,42.8v-8.22h.24c3.48,3.6,7.62,8.28,12.12,8.28,2.34,0,4.68-1.26,4.68-3.84,0-2.88-2.94-3.9-7.86-5.64-6.24-2.22-9.9-5.16-9.9-10.02,0-5.7,5.04-9.06,12.42-9.06,2.7,0,6.72.54,10.8,2.22v7.92h-.3c-3.3-3.84-7.14-7.74-11.34-7.74-2.28,0-4.5,1.14-4.5,3.48,0,2.82,3.24,3.84,7.98,5.46,7.02,2.4,9.42,5.58,9.42,9.9,0,6.9-5.82,9.84-11.94,9.84-2.82,0-6.96-.66-11.82-2.58Z"/>
      </g>
      <path class="cls-1" d="M168.93,6.77c.18-1.01.44-1.82.78-2.44.34-.62.76-1.09,1.27-1.42.5-.33,1.08-.54,1.72-.64.64-.1,1.36-.15,2.14-.15h5.99s5.66,0,5.66,0c-.04.27-.08.52-.14.76-.23,1.04-.59,1.84-1.1,2.42-.5.58-1.17.98-1.99,1.19-.82.21-1.84.32-3.05.32h-5.84c-.73,0-1.37.04-1.91.13-.54.09-1.01.26-1.4.53-.39.26-.71.62-.97,1.08-.17.31-.32.71-.45,1.17h-1.45c-.13-.46-.28-.85-.45-1.17-.25-.45-.57-.81-.97-1.08-.39-.26-.86-.44-1.4-.53-.54-.09-1.18-.13-1.91-.13h-5.84c-1.21,0-2.23-.11-3.05-.32-.82-.21-1.48-.61-1.99-1.19-.5-.58-.87-1.39-1.1-2.42-.05-.24-.1-.49-.14-.76h11.65c.78,0,1.5.05,2.14.15.64.1,1.22.32,1.72.64.5.33.93.8,1.27,1.42.34.62.6,1.43.78,2.44"/>
    </g>
  </g>
</svg>