<?xml version="1.0" encoding="UTF-8"?>
<svg id="Capa_2" data-name="Capa 2" xmlns="http://www.w3.org/2000/svg" viewBox="0 0 266.05 73.49">
  <defs>
    <style>
      .cls-1 {
        fill: #fff;
      }
    </style>
  </defs>
  <g id="Capa_1-2" data-name="Capa 1">
    <g>
      <g>
        <g>
          <path class="cls-1" d="M0,1.62h19.45c8.04,0,13.63,4.92,13.63,11.16,0,5.46-4.14,8.4-8.64,9.9,5.4,1.32,10.68,4.38,10.68,10.86,0,7.5-7.02,11.28-15.07,11.28H0v-.24c.18-.78,1.56-5.1,1.56-9.12V10.98C1.56,6.96.18,2.64,0,1.86v-.24ZM23.65,12.78c0-4.08-2.34-8.58-7.26-8.58h-5.82v17.47h5.64c4.92,0,7.44-4.5,7.44-8.88ZM25.75,33.49c0-5.34-3-9.3-8.76-9.3h-6.42v18.07h6.42c6,0,8.76-3.24,8.76-8.76Z"/>
          <path class="cls-1" d="M36.9,29.77c0-9.66,6.3-15.49,15.13-15.49,9.72,0,13.69,7.2,13.69,14.77h-19.51c.6,6.3,3.42,10.8,9.54,10.8,3.12,0,5.94-1.02,9.36-3.6l.24.12c-1.62,4.26-6.24,9.06-13.45,9.06s-15.01-5.16-15.01-15.67ZM46.14,27.61l11.1-1.74c-.12-4.68-1.32-9.24-5.34-9.24-4.38,0-5.82,5.22-5.76,10.26v.72Z"/>
          <path class="cls-1" d="M79.51,44.84h-11.58v-.24c.18-.78,1.56-5.1,1.56-9.12v-11.46c0-4.02-1.38-8.34-1.56-9.18v-.18h10.02v5.16c2.04-3.12,5.22-5.52,9.66-5.52,5.28,0,9.9,3.18,9.9,10.08v11.1c0,4.02,1.38,8.34,1.5,9.12v.24h-11.52v-.24c.18-.78,1.56-5.1,1.56-9.12v-9.96c0-4.26-2.58-5.88-5.4-5.94-1.98-.06-3.9.78-5.7,2.16v13.75c0,4.02,1.38,8.34,1.56,9.12v.24Z"/>
          <path class="cls-1" d="M101.08,35.95c0-6.48,6.48-10.32,13.87-9.6,1.5.12,3.24.42,4.62.9v-3.6c0-4.32-1.14-6.78-3.3-6.78-3.6,0-11.88,6.66-12.66,7.74h-.3v-8.1c5.16-1.5,10.2-2.22,13.45-2.22,7.86,0,11.28,4.08,11.28,9.9v12.67c0,3.36,1.08,4.8,3.84,3.6l.12.18c-.54,2.64-2.64,4.62-6,4.62-3.18,0-5.34-1.68-6.12-4.68-1.56,2.34-4.56,4.8-9.12,4.8-6.36,0-9.66-4.8-9.66-9.42ZM115.36,40.76c1.56,0,3-.72,4.2-1.98v-9.72c-.36,0-.78,0-1.2-.06-5.64-.72-8.46,2.16-8.46,5.76s2.22,6,5.46,6Z"/>
          <path class="cls-1" d="M129.05,14.83v-.18h14.05v.18c-.24.78-1.62,4.5-.12,7.92l6,14.11,5.64-14.05c1.38-3.42-.06-7.2-.36-7.98v-.18h7.38v.18c-.3.6-2.7,4.26-4.08,7.68l-9.12,22.33h-5.22l-9.3-21.55c-1.62-3.66-4.2-7.62-4.86-8.46Z"/>
          <path class="cls-1" d="M175.08,44.84h-11.52v-.24c.18-.78,1.56-5.1,1.56-9.12v-11.46c0-4.02-1.38-8.34-1.56-9.18v-.18h9.96v20.83c0,4.02,1.38,8.34,1.56,9.12v.24Z"/>
          <path class="cls-1" d="M198.59,40.4c-2.52,3.72-6.06,4.98-9.18,4.98-6.12,0-12.06-5.1-12.06-15.61s5.88-15.49,12.18-15.49c3.42,0,6.72,1.5,8.7,4.5v-8.34c0-4.02-2.04-8.16-2.34-8.94l-.06-.18,2.16-.3,8.7-1.02v35.47c0,4.02,1.38,8.34,1.56,9.12v.24h-7.8c-.6-1.5-1.38-2.64-1.86-4.44ZM193.13,41.06c1.8,0,3.48-.84,5.16-2.34-.06-.48-.06-1.08-.06-1.68v-15.85c-1.44-1.26-3.12-2.1-4.98-2.1-4.62,0-6.72,4.62-6.72,10.5s1.62,11.46,6.6,11.46Z"/>
          <path class="cls-1" d="M210.35,29.77c0-9.66,6.3-15.49,15.13-15.49,9.72,0,13.69,7.2,13.69,14.77h-19.51c.6,6.3,3.42,10.8,9.54,10.8,3.12,0,5.94-1.02,9.36-3.6l.24.12c-1.62,4.26-6.24,9.06-13.45,9.06s-15.01-5.16-15.01-15.67ZM219.59,27.61l11.1-1.74c-.12-4.68-1.32-9.24-5.34-9.24-4.38,0-5.82,5.22-5.76,10.26v.72Z"/>
          <path class="cls-1" d="M242.28,42.8v-8.22h.24c3.48,3.6,7.62,8.28,12.12,8.28,2.34,0,4.68-1.26,4.68-3.84,0-2.88-2.94-3.9-7.86-5.64-6.24-2.22-9.9-5.16-9.9-10.02,0-5.7,5.04-9.06,12.42-9.06,2.7,0,6.72.54,10.8,2.22v7.92h-.3c-3.3-3.84-7.14-7.74-11.34-7.74-2.28,0-4.5,1.14-4.5,3.48,0,2.82,3.24,3.84,7.98,5.46,7.02,2.4,9.42,5.58,9.42,9.9,0,6.9-5.82,9.84-11.94,9.84-2.82,0-6.96-.66-11.82-2.58Z"/>
        </g>
        <path class="cls-1" d="M168.93,6.77c.18-1.01.44-1.82.78-2.44.34-.62.76-1.09,1.27-1.42.5-.33,1.08-.54,1.72-.64.64-.1,1.36-.15,2.14-.15h5.99s5.66,0,5.66,0c-.04.27-.08.52-.14.76-.23,1.04-.59,1.84-1.1,2.42-.5.58-1.17.98-1.99,1.19-.82.21-1.84.32-3.05.32h-5.84c-.73,0-1.37.04-1.91.13-.54.09-1.01.26-1.4.53-.39.26-.71.62-.97,1.08-.17.31-.32.71-.45,1.17h-1.45c-.13-.46-.28-.85-.45-1.17-.25-.45-.57-.81-.97-1.08-.39-.26-.86-.44-1.4-.53-.54-.09-1.18-.13-1.91-.13h-5.84c-1.21,0-2.23-.11-3.05-.32-.82-.21-1.48-.61-1.99-1.19-.5-.58-.87-1.39-1.1-2.42-.05-.24-.1-.49-.14-.76h11.65c.78,0,1.5.05,2.14.15.64.1,1.22.32,1.72.64.5.33.93.8,1.27,1.42.34.62.6,1.43.78,2.44"/>
      </g>
      <g>
        <path class="cls-1" d="M130.98,73.31l5.04-12.26h1.4l5.01,12.26h-2.17l-3.92-9.93h.74l-3.96,9.93h-2.14ZM133.47,70.95v-1.75h6.5v1.75h-6.5Z"/>
        <path class="cls-1" d="M151.91,73.49c-.97,0-1.79-.17-2.47-.53-.68-.35-1.28-.86-1.82-1.54l1.37-1.37c.34.49.74.87,1.21,1.15.47.27,1.06.41,1.79.41.68,0,1.22-.14,1.62-.42s.6-.67.6-1.16c0-.41-.1-.74-.32-1-.21-.26-.49-.47-.83-.64-.34-.17-.72-.32-1.14-.46-.41-.13-.83-.29-1.24-.46s-.79-.38-1.14-.64c-.34-.26-.62-.59-.83-1-.21-.41-.32-.93-.32-1.56,0-.72.18-1.34.53-1.85.36-.51.84-.9,1.45-1.17.61-.27,1.28-.4,2.03-.4.81,0,1.53.16,2.16.47.64.31,1.15.72,1.55,1.21l-1.37,1.37c-.35-.4-.72-.69-1.09-.88-.38-.19-.81-.29-1.31-.29-.61,0-1.08.12-1.43.37s-.52.59-.52,1.03c0,.37.1.67.32.9.21.23.49.42.83.58.34.16.72.31,1.14.45.41.14.83.3,1.24.47.41.17.79.4,1.14.67.34.27.62.63.83,1.06.21.43.32.98.32,1.63,0,1.1-.39,1.97-1.17,2.61-.78.64-1.82.96-3.14.96Z"/>
        <path class="cls-1" d="M168.14,73.49c-.88,0-1.69-.16-2.45-.49-.76-.33-1.42-.78-2-1.36s-1.02-1.25-1.34-2.01c-.32-.76-.48-1.58-.48-2.46s.16-1.69.48-2.45c.32-.76.76-1.43,1.33-2.01s1.23-1.03,1.98-1.35,1.57-.48,2.44-.48,1.69.16,2.44.48c.75.32,1.42.77,1.99,1.35s1.02,1.25,1.34,2.01c.32.76.48,1.58.48,2.46s-.16,1.7-.48,2.46c-.32.76-.77,1.43-1.33,2.01s-1.23,1.02-1.98,1.35-1.56.49-2.43.49ZM168.1,71.56c.83,0,1.56-.19,2.18-.56.62-.37,1.12-.89,1.47-1.55.36-.66.53-1.42.53-2.29,0-.64-.1-1.23-.31-1.76-.2-.53-.49-.99-.87-1.38-.37-.39-.81-.69-1.32-.9-.51-.21-1.07-.32-1.69-.32-.82,0-1.54.18-2.16.55-.62.37-1.12.88-1.47,1.53-.36.65-.53,1.41-.53,2.28,0,.64.1,1.23.31,1.78.2.54.49,1.01.86,1.39.37.38.81.69,1.32.9.51.22,1.07.32,1.68.32Z"/>
        <path class="cls-1" d="M186.32,73.49c-.89,0-1.71-.16-2.46-.48-.75-.32-1.41-.77-1.97-1.35s-.99-1.25-1.3-2.01c-.3-.76-.46-1.58-.46-2.46s.15-1.7.46-2.46c.3-.77.74-1.43,1.3-2.01s1.22-1.02,1.97-1.35c.75-.33,1.57-.49,2.46-.49.99,0,1.85.16,2.58.49.72.33,1.37.77,1.93,1.33l-1.37,1.37c-.36-.4-.8-.71-1.32-.93-.52-.22-1.12-.33-1.81-.33-.61,0-1.16.11-1.66.32-.5.21-.94.51-1.31.9-.37.39-.65.86-.85,1.39-.2.54-.3,1.13-.3,1.77s.1,1.23.3,1.77c.2.54.48,1,.85,1.39.37.39.8.69,1.31.9.5.21,1.06.32,1.66.32.75,0,1.38-.11,1.9-.34.52-.23.96-.54,1.32-.94l1.37,1.37c-.56.57-1.22,1.02-1.98,1.35s-1.63.49-2.61.49Z"/>
        <path class="cls-1" d="M196.91,73.31v-12.26h2.01v12.26h-2.01Z"/>
        <path class="cls-1" d="M204.88,73.31l5.04-12.26h1.4l5.01,12.26h-2.17l-3.92-9.93h.74l-3.96,9.93h-2.14ZM207.37,70.95v-1.75h6.5v1.75h-6.5Z"/>
        <path class="cls-1" d="M222.28,73.31v-12.26h2.01v12.26h-2.01ZM223.66,73.31v-1.84h3.22c.84,0,1.58-.18,2.22-.54.64-.36,1.13-.87,1.49-1.51.36-.65.53-1.4.53-2.25s-.18-1.58-.54-2.22-.86-1.14-1.5-1.51c-.64-.36-1.37-.54-2.2-.54h-3.22v-1.84h3.28c.89,0,1.71.15,2.47.46.76.31,1.42.74,1.99,1.3.57.56,1.01,1.2,1.32,1.94.32.74.47,1.55.47,2.43s-.16,1.67-.47,2.42c-.32.75-.75,1.4-1.31,1.95s-1.22.99-1.98,1.3c-.76.31-1.58.46-2.45.46h-3.31Z"/>
        <path class="cls-1" d="M245.24,73.49c-.88,0-1.69-.16-2.45-.49-.76-.33-1.42-.78-2-1.36s-1.02-1.25-1.34-2.01c-.32-.76-.48-1.58-.48-2.46s.16-1.69.48-2.45c.32-.76.76-1.43,1.33-2.01s1.23-1.03,1.98-1.35,1.57-.48,2.44-.48,1.69.16,2.44.48c.75.32,1.42.77,1.99,1.35s1.02,1.25,1.34,2.01c.32.76.48,1.58.48,2.46s-.16,1.7-.48,2.46c-.32.76-.77,1.43-1.33,2.01s-1.23,1.02-1.98,1.35-1.56.49-2.43.49ZM245.2,71.56c.83,0,1.56-.19,2.18-.56.62-.37,1.12-.89,1.47-1.55.36-.66.53-1.42.53-2.29,0-.64-.1-1.23-.31-1.76-.2-.53-.49-.99-.87-1.38-.37-.39-.81-.69-1.32-.9-.51-.21-1.07-.32-1.69-.32-.82,0-1.54.18-2.16.55-.62.37-1.12.88-1.47,1.53-.36.65-.53,1.41-.53,2.28,0,.64.1,1.23.31,1.78.2.54.49,1.01.86,1.39.37.38.81.69,1.32.9.51.22,1.07.32,1.68.32Z"/>
        <path class="cls-1" d="M261.05,73.49c-.97,0-1.79-.17-2.47-.53-.68-.35-1.28-.86-1.82-1.54l1.37-1.37c.34.49.74.87,1.21,1.15.47.27,1.06.41,1.79.41.68,0,1.22-.14,1.62-.42s.6-.67.6-1.16c0-.41-.1-.74-.32-1-.21-.26-.49-.47-.83-.64-.34-.17-.72-.32-1.14-.46-.41-.13-.83-.29-1.24-.46s-.79-.38-1.14-.64c-.34-.26-.62-.59-.83-1-.21-.41-.32-.93-.32-1.56,0-.72.18-1.34.53-1.85.36-.51.84-.9,1.45-1.17.61-.27,1.28-.4,2.03-.4.81,0,1.53.16,2.16.47.64.31,1.15.72,1.55,1.21l-1.37,1.37c-.35-.4-.72-.69-1.09-.88-.38-.19-.81-.29-1.31-.29-.61,0-1.08.12-1.43.37s-.52.59-.52,1.03c0,.37.1.67.32.9.21.23.49.42.83.58.34.16.72.31,1.14.45.41.14.83.3,1.24.47.41.17.79.4,1.14.67.34.27.62.63.83,1.06.21.43.32.98.32,1.63,0,1.1-.39,1.97-1.17,2.61-.78.64-1.82.96-3.14.96Z"/>
      </g>
    </g>
  </g>
</svg>